<svg id="グループ_17" data-name="グループ 17" xmlns="http://www.w3.org/2000/svg" xmlns:xlink="http://www.w3.org/1999/xlink" width="526.248" height="193.665" viewBox="0 0 526.248 193.665">
  <defs>
    <clipPath id="clip-path">
      <rect id="長方形_112" data-name="長方形 112" width="526.248" height="193.665" fill="none"/>
    </clipPath>
  </defs>
  <g id="グループ_16" data-name="グループ 16" clip-path="url(#clip-path)">
    <path id="パス_20" data-name="パス 20" d="M179.608,122.059c9.959-5.4,35.151-20.225,51.831-40.352a1.491,1.491,0,0,1,2.263-.053L251.321,101.3a1.491,1.491,0,0,1-.25,2.22c-4.12,2.885-16.444,11.374-22.153,13.77a1.478,1.478,0,0,0-.92,1.419c.25,7.549,1.762,53.3,1.994,62.622a1.494,1.494,0,0,1-1.5,1.531H212.28a1.49,1.49,0,0,1-1.49-1.477c-.067-8.117-.39-47.338-.439-58.028a1.48,1.48,0,0,0-1.915-1.413,78.1,78.1,0,0,1-28.244,2.922,1.5,1.5,0,0,1-.584-2.8m36.228-61.834V49.4a1.493,1.493,0,0,0-1.531-1.5c-3.222.084-11.12.317-19.749.789a1.5,1.5,0,0,1-1.58-1.511l.191-15.438a1.491,1.491,0,0,1,1.506-1.477c4,.046,14.944.17,19.223.2A1.492,1.492,0,0,0,215.4,29l.185-12.585a1.5,1.5,0,0,1,1.514-1.474l15.979.193a1.494,1.494,0,0,1,1.477,1.537l-.372,13.4A1.5,1.5,0,0,0,235.7,31.6l14.546-.189a1.5,1.5,0,0,1,1.515,1.5v12.73a1.49,1.49,0,0,1-1.532,1.495c-3.3-.093-11.141-.274-15.606-.048A1.489,1.489,0,0,0,233.2,48.55c-.044,2.588-.138,8.17-.182,10.759a1.491,1.491,0,0,1-1.4,1.462l-14.191.946a1.5,1.5,0,0,1-1.6-1.492m57.217,54.784c5.925-2.508,15.109-6.585,18.183-9a1.468,1.468,0,0,0,.55-1.185l-.422-27.51a1.5,1.5,0,0,1,1.514-1.519l15.517.192a1.5,1.5,0,0,1,1.477,1.5V95.177a1.494,1.494,0,0,0,2.136,1.352c4.425-2.113,14.791-7.416,22.088-13.949a1.487,1.487,0,0,1,2.308.434L346.746,102.9a1.489,1.489,0,0,1-.565,1.977c-4.446,2.6-20.414,11.363-36.544,13.1a1.5,1.5,0,0,0-1.348,1.5l.423,32.359a1.5,1.5,0,0,0,1.315,1.466c7.3.921,24.393,1.026,30.723-.991a1.478,1.478,0,0,0,1.012-1.283l.99-10.749a1.5,1.5,0,0,1,2.855-.472l15.642,35.1a1.492,1.492,0,0,1-1.129,2.086c-8.08,1.261-40.182,5.692-67.534,1.267a1.5,1.5,0,0,1-1.253-1.472c-.034-6.544-.165-37,.2-56.289a1.485,1.485,0,0,0-1.44-1.518c-2.832-.091-9.4-.366-16.607-1.108a1.5,1.5,0,0,1-.438-2.866m55.508-98.086L328.023,28.4a1.5,1.5,0,0,0,1.548,1.564l16.007-.572a1.5,1.5,0,0,1,1.548,1.533l-.379,14.963a1.494,1.494,0,0,1-1.558,1.457c-3.349-.145-11.359-.486-15.018-.59a1.5,1.5,0,0,0-1.538,1.5v10.76a1.5,1.5,0,0,1-1.441,1.495l-15.947.576a1.494,1.494,0,0,1-1.549-1.543l.352-10.719a1.493,1.493,0,0,0-1.577-1.542c-3.234.186-10.666.614-16.659.957a1.49,1.49,0,0,1-1.577-1.525c.088-3.589.3-12.171.381-15.646a1.49,1.49,0,0,1,1.53-1.457c3.558.1,12.533.336,16.489.4a1.488,1.488,0,0,0,1.511-1.449c.088-2.846.28-9.091.368-11.939a1.5,1.5,0,0,1,1.514-1.449l15.058.19a1.5,1.5,0,0,1,1.475,1.566" fill="#de9aa5"/>
    <path id="パス_21" data-name="パス 21" d="M526.247,13.93c-.129,7.662-.538,28.4-1.321,39.866a2.867,2.867,0,0,1-2.8,2.676c-13.039.326-71.38,1.771-86.843,1.934a2.86,2.86,0,0,0-2.765,2.216c-2,8.636-11.315,40.291-42.251,51.805a2.883,2.883,0,0,1-3.334-4.393c9.559-13.143,27.921-44.537,28.15-92.017a2.884,2.884,0,0,1,2.789-2.886c26.823-.82,89.949-1.946,105.463-2.125a2.871,2.871,0,0,1,2.907,2.924m-65.339,147.5.059-.842a2.877,2.877,0,0,0-2.839-3.079c-4.541-.047-13.487-.11-22.2-.005a2.88,2.88,0,0,1-2.911-2.916l.153-12.347a2.879,2.879,0,0,1,2.856-2.844l20.817-.176a2.881,2.881,0,0,0,2.855-2.789l.27-8.516a2.88,2.88,0,0,1,2.907-2.789l17.323.168a2.881,2.881,0,0,1,2.852,2.936l-.109,5.661a2.88,2.88,0,0,0,3.006,2.933l19.364-.849a2.881,2.881,0,0,1,3.006,2.948l-.307,12.546a2.886,2.886,0,0,1-2.794,2.809c-9.226.288-15.34.355-19.545.477a2.881,2.881,0,0,0,.03,5.759l36.6.775a2.88,2.88,0,0,1,2.819,2.939l-.329,15.771a2.876,2.876,0,0,1-2.887,2.82c-15.035-.061-85.619-.309-104.776.319a2.874,2.874,0,0,1-2.962-3.058L414.916,168a2.874,2.874,0,0,1,2.782-2.7c7.145-.213,27.316-.812,40.422-1.189a2.879,2.879,0,0,0,2.788-2.681m20.139-73.146c-.814,2.511-2.9,7.389-8.081,13.88a2.876,2.876,0,0,0,2.235,4.665c6.336.034,16.011-.087,21.834-1.06a2.886,2.886,0,0,0,2.26-3.794L498.1,98.564a2.881,2.881,0,0,1,2.241-3.789l12.617-2.128a2.88,2.88,0,0,1,3.263,2.1l4.66,17.6a2.869,2.869,0,0,1-2.084,3.532c-11.963,2.894-49.623,6.329-70.228.961a2.875,2.875,0,0,1-1.684-4.336c3.148-4.918,9.223-14.413,13.128-20.556a2.877,2.877,0,0,0-2.526-4.419c-5.955.2-13.609.339-18.874.76a2.876,2.876,0,0,1-3.1-2.94l.306-13.018a2.881,2.881,0,0,1,2.792-2.811l82.246-2.511a2.88,2.88,0,0,1,2.968,2.879V82.262a2.875,2.875,0,0,1-2.78,2.879c-6.882.226-25.042.818-37.369,1.188a2.852,2.852,0,0,0-2.636,1.96m20.386-60.323-52.7-.4a2.88,2.88,0,0,0-2.9,2.746l-.183,3.941a2.874,2.874,0,0,0,2.791,3.013c14.78.4,43.9-.1,52.953-.269a2.873,2.873,0,0,0,2.817-2.808l.081-3.267a2.88,2.88,0,0,0-2.857-2.952" fill="#1a1311"/>
    <path id="パス_22" data-name="パス 22" d="M119.073,159.189A2.972,2.972,0,0,0,116,156.045c-11.932.424-52.872,1.829-65.084,1.625a2.975,2.975,0,0,0-3.025,2.981v18.735a2.982,2.982,0,0,1-3.137,2.977l-16.637-.868a2.981,2.981,0,0,1-2.8-3.361c.6-4.612,1.652-13.126,1.941-18.064a2.972,2.972,0,0,0-2.977-3.14c-4.949.007-14.885.034-21.252.134A2.979,2.979,0,0,1,0,153.977l.387-10.968a2.977,2.977,0,0,1,2.983-2.876c4.857.015,14.822.071,21.774.279a2.982,2.982,0,0,0,3.076-3.044c-.236-10.553-1.046-44.545-1.93-55.712a2.971,2.971,0,0,1,3.069-3.205c7.677.264,26.153.853,35.453.746a2.983,2.983,0,0,0,2.952-2.9l.439-16.416a2.98,2.98,0,0,0-3.064-3.06c-7.221.208-24.9.71-32.065.864a2.977,2.977,0,0,1-3.03-2.718L28.582,38.424a2.977,2.977,0,0,1,3.009-3.244c15.521.235,81.184,1.163,97.463.3a2.983,2.983,0,0,1,3.123,3.241l-1.655,19.112a2.975,2.975,0,0,1-2.937,2.724c-7.042.065-26.013.194-34.744-.209a2.976,2.976,0,0,0-3.109,3.018l.118,8.816a2.976,2.976,0,0,0,2.985,2.942c6.979-.023,24.737-.128,35.428-.629a2.971,2.971,0,0,1,3.116,2.884c.32,10.805,1.37,47.236,1.368,58.675a2.97,2.97,0,0,0,3.082,2.972c4.668-.168,13.45-.538,18.677-1.113a2.978,2.978,0,0,1,3.286,3.2l-1.078,13.744c-.126,1.6,0,1.49-1.6,1.418l-15.145-.857c-1.663-.073-8.919-.542-8.965,1.122M53.363,109.528H63.995a2.981,2.981,0,0,0,2.98-2.894l.222-7.562A2.982,2.982,0,0,0,64.145,96l-10.633.256A2.981,2.981,0,0,0,50.6,99.15l-.221,7.306a2.982,2.982,0,0,0,2.98,3.072m11.6,17.848-10.615.75a2.98,2.98,0,0,0-2.77,3.07l.215,6.665a2.978,2.978,0,0,0,3.113,2.884c3.256-.153,7.491-.7,10.069-1.071a2.976,2.976,0,0,0,2.538-2.659l.627-6.373a2.982,2.982,0,0,0-3.177-3.266m42.949,2.317-13.94.683a2.982,2.982,0,0,0-2.825,3.231l.306,3.6a2.977,2.977,0,0,0,2.949,2.729c4.5.024,10.02.1,13.283.148a2.976,2.976,0,0,0,3.011-2.757l.335-4.432a2.981,2.981,0,0,0-3.119-3.2M91.3,97.121l.592,8.529a2.98,2.98,0,0,0,3.151,2.771c3.955-.238,9.273-.815,12.413-1.179a2.979,2.979,0,0,0,2.636-2.961V96.1a2.982,2.982,0,0,0-3.169-2.976l-12.837.811A2.981,2.981,0,0,0,91.3,97.121" fill="#1a1311"/>
    <path id="パス_23" data-name="パス 23" d="M127.646,155.415c.347,4.333.693,13.623.78,16.024a.579.579,0,0,0,.6.557l10.1-.315a.582.582,0,0,1,.347,1.062c-8.157,5.777-13.571,17.151-14.949,20.475-.106.259-.961.457-1.014.183-3.027-15.771-2.757-37.986-2.757-37.986" fill="#1a1311"/>
    <path id="パス_24" data-name="パス 24" d="M119.074,159.189c-.344,4.3-1.536,11.344-1.862,13.223a.553.553,0,0,1-.565.458l-10.256-.32a.553.553,0,0,0-.322,1.015c8.126,5.48,15.207,16.228,17.444,19.836a.553.553,0,0,0,1.014-.183c3.124-15.682,6.474-36.681,6.474-36.681" fill="#1a1311"/>
    <path id="パス_25" data-name="パス 25" d="M28.464,37.724c-.346-4.335-.693-13.632-.78-16.027a.576.576,0,0,0-.6-.555l-10.023.314a.579.579,0,0,1-.33-1.068C25.534,14.693,36,3.4,38.89.192a.578.578,0,0,1,1,.278c2.985,15.687,3.176,36.454,3.176,36.454" fill="#1a1311"/>
    <path id="パス_26" data-name="パス 26" d="M28.464,37.724s6.9-20.843,10.308-36.5c.119-.548.894-1.269,1.117-.755,1.8,4.158,7.439,15.378,15.019,20.737a.576.576,0,0,1-.342,1.052L44.44,21.942a.575.575,0,0,0-.6.553c-.086,2.392-.433,11.692-.779,16.029" fill="#1a1311"/>
  </g>
</svg>
